<?xml version="1.0" encoding="UTF-8"?>
<svg id="Capa_1" xmlns="http://www.w3.org/2000/svg" viewBox="0 0 841.89 1190.55">
  <defs>
    <style>

      .cls-3 {
        letter-spacing: -.05em;
      }

      .cls-4 {
        stroke: #395144;
        stroke-linecap: round;
        stroke-linejoin: round;
        stroke-width: 11px;
      }

      .cls-2 {
        font-family: Swiss721BT-BlackOutline, 'Swis721 BlkOul BT';
        font-size: 92.89px;
        font-weight: 800;
      }
    </style>
  </defs>
  <g>
    <path class="cls-1" d="M162.2,611.16l-.78.89c-5.11-1.56-10.15-3.46-15.36-4.59-4.24-.92-7.52-2.75-10.53-5.9-5.21-5.47-11.31-9.92-18.8-11.74-8.64-2.1-17.4-3.68-26.05-5.74-10.05-2.4-20.01-5.15-30.06-7.54-1.48-.35-3.24.45-4.87.72.35,1.48.32,3.21,1.11,4.39,8.88,13.18,20.91,22.63,35.55,28.54,12.47,5.03,25.29,3.48,38.12,1.08,3.95-.74,8.29-1.01,12.19-.2,16.26,3.37,29.59,12.02,39.89,24.84,6.8,8.46,11.77,18.15,15.29,29.48-9.38-5.51-18.7-7.67-28.64-7.38-1.22.03-2.46-1.15-3.71-1.71-7.64-3.41-15.01-7.79-22.98-10-14.69-4.07-29.73-6.88-44.64-10.15-1.28-.28-2.67-.04-5.41-.04,2.06,2.97,3.12,5.35,4.89,6.9,7.14,6.23,13.94,13.12,21.91,18.08,13.4,8.35,28.45,11.44,43.38,4.97,8.11-3.51,15.41-3.29,23.06-.79,7.38,2.41,14.56,7.25,14,15.23-.65,9.24-.23,9.27,9.51,9.13.96-.01,1.92-.1,2.87-.02,2.93.23,3.81-1.05,3.76-3.97-.32-17.37-6.94-32.55-16.76-46.33-8.08-11.33-17.25-21.87-25.6-33.02-8.36-11.17-10.44-23.96-7.97-37.47.35-1.94,2.35-3.75,3.92-5.27,3.74-3.61,8.52-6.43,11.34-10.61,4.38-6.5,7.31-13.97,11.17-20.85,5.36-9.54,11.06-18.9,16.49-28.4.61-1.07.49-2.57.7-3.87-1.19-.03-2.45-.33-3.57-.06-8.89,2.17-17.14,5.49-24.23,11.66-12.7,11.05-21.17,23.97-20.64,41.55.15,5.02-.32,10.06-.38,15.1-.09,6.62-.09,13.25-.05,19.88,0,1.35.37,2.69.57,4.03-10.67-8.55-18.86-18.82-25.43-30.44-10.3-18.23-7.42-36.44-.08-54.69,1.08-2.68,2.94-3.67,5.75-4.14,7.57-1.25,15.3-2.87,20.78-8.64,5.73-6.04,10.73-12.78,15.91-19.33,3.43-4.34,6.43-9.03,9.95-13.29,5.71-6.92,12.35-12.81,20.8-17.03-6.03-1.2-11.98-2.24-17.84-1.88-17.14,1.03-29.54,10.56-40.13,23.24-9.51,11.4-14.04,25.31-19.63,38.63-3.5,8.35-5.66,17.27-8.28,25.5-.14-.47-.63-1.51-.73-2.59-.38-3.96-.84-7.93-.91-11.9-.46-25.61,5.42-49.77,16.81-72.64,2.98-5.99,6.39-11.41,12.47-15.2,8.48-5.28,14.72-12.8,19.1-22.01,6.07-12.77,12.75-25.24,19.09-37.88.5-.99.41-2.28.6-3.44-1.19-.16-2.46-.68-3.55-.42-4.33,1.03-8.68,2.05-12.87,3.52-16.48,5.79-27.87,16.64-31.28,34.15-1.44,7.41-.87,15.19-1.57,22.77-.27,2.97-.89,6.26-2.45,8.7-7.46,11.6-13.05,24.01-17.02,37.17-2.01,6.65-3.68,13.39-5.72,20.85-2.82-4.81-5.57-8.63-3.94-14.08,7.07-23.56,3.37-45.93-7.97-67.34-.75-1.42-1.88-2.63-3.53-4.91-2.6,5.99-4.9,10.8-6.81,15.78-8.68,22.65-3.65,43.41,10.35,61.98,5.78,7.66,9.39,15.18,9.38,24.69-.01,12.11.69,24.17,4.3,35.87,1.43,4.64,2.74,9.31,4.56,15.52-4.88-2.31-8.72-3.93-12.37-5.89-6.66-3.59-11.75-8.54-13.66-16.25-3.68-14.87-11.46-27.23-23.46-36.74-6.15-4.87-12.66-9.28-19.01-13.9-.43.27-.86.54-1.29.81.47,6.92.35,13.95,1.53,20.75,2.9,16.81,11.28,29.99,27.35,37.21,5.63,2.53,11.73,4.04,17.24,6.77,8.52,4.23,16.75,9.05,25.03,13.75,1.56.89,3,2.19,4.12,3.6,5.23,6.57,10.13,13.42,15.53,19.84,6.51,7.75,13.41,15.17,20.14,22.74ZM258.1,439.19c9.51,2.75,17.57,4.9,25.49,7.47,2.26.74,4.3,2.5,6.13,4.15,6,5.39,12.48,9.85,20.53,11.51,9,1.85,18.05,3.45,27,5.49,7.87,1.79,15.61,4.13,23.46,6.03,1.36.33,2.95-.31,4.44-.5-.31-1.45-.23-3.17-1-4.31-11.43-16.95-34.23-32.97-59.42-28.83-11.06,1.82-22.02,2.64-32.95-1.51-18.29-6.94-32.18-18.82-41.57-35.86-2.74-4.97-4.51-10.48-6.72-15.75,9.29,4,18.16,6.6,27.83,6.16,1.39-.06,3.02.84,4.23,1.71,8.17,5.86,17.3,9.23,27.09,11.26,12.92,2.68,25.75,5.77,38.64,8.6,1.9.42,3.91.33,6.99.56-1.4-2.62-2.06-4.37-3.15-5.79-6.7-8.75-15.21-15.38-24.91-20.46-13.54-7.09-27.85-10.19-42.24-3.76-10.99,4.91-20.41,2.44-29.8-2.98-3.74-2.16-6.59-5.12-6.49-10.29.21-10.72-.02-10.73-11.12-10.41-.48.01-.96.1-1.43.08-3.18-.15-3.99,1.44-3.88,4.45.45,12.17,3.01,23.98,9.61,34.11,8.13,12.48,17.15,24.44,26.51,36.04,9.4,11.64,15.64,24.14,15.51,39.38-.05,5.72-.61,10.59-6.86,13.63-7.55,3.68-11.73,10.86-15.55,18.12-5.49,10.46-11.11,20.85-16.72,31.25-2.2,4.07-4.55,8.06-6.83,12.08.38.41.76.81,1.15,1.22,3.44-.92,7.05-1.45,10.31-2.82,19.8-8.31,34.14-21.48,37.12-43.92.74-5.57-1.05-11.61.27-16.95,2.53-10.25,2.52-20.22-.3-31.05,1.59,1.13,2.69,1.59,3.33,2.42,7.67,9.88,15.47,19.67,22.83,29.78,5.91,8.11,7.5,17.72,6.9,27.45-.63,10.13-2.74,20.03-7.13,29.37-1.54,3.28-3.73,4.68-7.09,5.44-4.9,1.1-10.01,2.08-14.42,4.31-10.21,5.17-16.04,14.84-22.55,23.72-3.16,4.31-6.28,8.67-9.63,12.84-5.64,7.02-12.44,12.69-20.71,17.13,6.18,1.05,12.3,2.04,18.29,1.51,11.56-1.04,21.72-5.61,30.29-13.78,9.36-8.93,16.72-19.1,21.49-31.14,1.62-4.08,3.43-8.08,5.01-12.17,3.13-8.1,6.3-16.2,9.19-24.39,1.22-3.45,1.77-7.14,2.63-10.72,1.58,9.23,3.01,18.47,2.38,27.56-1.44,20.76-6.53,40.75-15.68,59.57-3.39,6.96-6.85,13.44-14.09,17.85-9.14,5.57-15.15,14.48-19.9,24.09-5.2,10.52-10.41,21.02-15.66,31.51-1.15,2.31-2.5,4.52-3.75,6.78.32.49.63.97.95,1.46,3.11-.6,6.26-1.02,9.31-1.81,19.62-5.1,34-16.03,38.16-36.81,1.51-7.53.72-15.51,1.18-23.27.12-2.09.43-4.5,1.56-6.15,10.45-15.27,17.07-32.16,21.44-50.01.79-3.23,1.39-6.51,2.07-9.76,2.66,4.61,6.76,8.1,4.92,13.99-7.35,23.47-3.91,45.84,7.62,67.23.77,1.42,1.87,2.67,3.3,4.67,9.19-17.94,15.58-35.36,8.03-54.56-3.05-7.75-6.27-15.93-11.46-22.22-6.75-8.16-9.28-16.83-9.81-26.94-.53-9.94-1.66-19.89-3.2-29.72-1-6.41-3.21-12.63-4.9-19,13.95,3.35,22.54,10.57,26.21,21.86,1.33,4.08,2.47,8.24,4.16,12.16,7.31,16.91,21.55,27.16,36.13,37.03.68.46,1.72.41,2.84.65,0-3.79.04-7.24,0-10.69-.36-26.13-13.66-43.88-38.66-51.72-2.85-.89-5.73-1.89-8.36-3.28-7.01-3.69-13.92-7.58-20.82-11.48-2.58-1.46-5.62-2.67-7.43-4.85-7.36-8.87-14.21-18.17-21.48-27.12-4.44-5.47-9.31-10.61-14.85-16.88Z"/>
    <path class="cls-1" d="M162.2,611.16c-6.73-7.57-13.63-14.99-20.14-22.74-5.4-6.43-10.3-13.27-15.53-19.84-1.12-1.41-2.56-2.72-4.12-3.6-8.28-4.7-16.51-9.52-25.03-13.75-5.51-2.73-11.61-4.25-17.24-6.77-16.07-7.21-24.44-20.39-27.35-37.21-1.17-6.8-1.06-13.83-1.53-20.75.43-.27.86-.54,1.29-.81,6.35,4.62,12.86,9.02,19.01,13.9,12,9.52,19.79,21.87,23.46,36.74,1.91,7.71,6.99,12.66,13.66,16.25,3.65,1.96,7.48,3.58,12.37,5.89-1.82-6.21-3.13-10.89-4.56-15.52-3.61-11.7-4.31-23.76-4.3-35.87.01-9.5-3.6-17.02-9.38-24.69-14.01-18.57-19.03-39.33-10.35-61.98,1.9-4.97,4.21-9.79,6.81-15.78,1.66,2.28,2.78,3.5,3.53,4.91,11.34,21.41,15.04,43.77,7.97,67.34-1.64,5.45,1.12,9.27,3.94,14.08,2.03-7.46,3.71-14.2,5.72-20.85,3.97-13.15,9.55-25.57,17.02-37.17,1.57-2.43,2.18-5.73,2.45-8.7.7-7.58.13-15.36,1.57-22.77,3.41-17.51,14.8-28.36,31.28-34.15,4.19-1.47,8.54-2.49,12.87-3.52,1.09-.26,2.36.26,3.55.42-.19,1.15-.1,2.44-.6,3.44-6.34,12.64-13.02,25.11-19.09,37.88-4.38,9.21-10.62,16.73-19.1,22.01-6.08,3.79-9.49,9.21-12.47,15.2-11.39,22.87-17.28,47.03-16.81,72.64.07,3.97.53,7.94.91,11.9.11,1.08.6,2.13.73,2.59,2.62-8.23,4.77-17.14,8.28-25.5,5.59-13.32,10.11-27.23,19.63-38.63,10.58-12.68,22.99-22.21,40.13-23.24,5.86-.35,11.8.69,17.84,1.88-8.45,4.23-15.09,10.11-20.8,17.03-3.52,4.26-6.52,8.95-9.95,13.29-5.18,6.55-10.18,13.29-15.91,19.33-5.47,5.77-13.21,7.39-20.78,8.64-2.8.46-4.67,1.46-5.75,4.14-7.34,18.25-10.22,36.46.08,54.69,6.57,11.62,14.76,21.89,25.43,30.44-.2-1.34-.56-2.69-.57-4.03-.04-6.63-.04-13.25.05-19.88.07-5.03.53-10.07.38-15.1-.53-17.58,7.94-30.5,20.64-41.55,7.09-6.17,15.34-9.49,24.23-11.66,1.12-.27,2.38.03,3.57.06-.22,1.3-.09,2.8-.7,3.87-5.44,9.5-11.13,18.86-16.49,28.4-3.86,6.88-6.79,14.35-11.17,20.85-2.82,4.18-7.6,7-11.34,10.61-1.57,1.52-3.56,3.33-3.92,5.27-2.47,13.52-.38,26.31,7.97,37.47,8.34,11.15,17.52,21.69,25.6,33.02,9.83,13.78,16.44,28.96,16.76,46.33.05,2.91-.82,4.2-3.76,3.97-.95-.08-1.91,0-2.87.02-9.74.13-10.16.11-9.51-9.13.56-7.98-6.62-12.82-14-15.23-7.65-2.5-14.95-2.72-23.06.79-14.94,6.46-29.99,3.38-43.38-4.97-7.97-4.97-14.77-11.85-21.91-18.08-1.78-1.55-2.83-3.93-4.89-6.9,2.74,0,4.13-.24,5.41.04,14.91,3.27,29.95,6.08,44.64,10.15,7.97,2.21,15.35,6.59,22.98,10,1.25.56,2.49,1.74,3.71,1.71,9.95-.28,19.26,1.87,28.64,7.38-3.52-11.33-8.5-21.02-15.29-29.48-10.3-12.82-23.63-21.47-39.89-24.84-3.9-.81-8.23-.54-12.19.2-12.83,2.4-25.66,3.95-38.12-1.08-14.64-5.91-26.67-15.36-35.55-28.54-.79-1.18-.76-2.91-1.11-4.39,1.63-.27,3.39-1.07,4.87-.72,10.05,2.39,20.01,5.14,30.06,7.54,8.65,2.06,17.41,3.65,26.05,5.74,7.49,1.82,13.59,6.27,18.8,11.74,3.01,3.16,6.28,4.98,10.53,5.9,5.21,1.13,10.25,3.02,15.36,4.59l.78-.89Z"/>
    <path class="cls-1" d="M258.1,439.19c5.55,6.27,10.41,11.41,14.85,16.88,7.27,8.95,14.11,18.25,21.48,27.12,1.81,2.18,4.85,3.39,7.43,4.85,6.9,3.9,13.81,7.79,20.82,11.48,2.64,1.39,5.51,2.39,8.36,3.28,25,7.83,38.31,25.59,38.66,51.72.05,3.45,0,6.9,0,10.69-1.12-.24-2.16-.19-2.84-.65-14.58-9.87-28.82-20.12-36.13-37.03-1.7-3.92-2.84-8.09-4.16-12.16-3.67-11.3-12.26-18.51-26.21-21.86,1.69,6.38,3.89,12.6,4.9,19,1.54,9.84,2.67,19.78,3.2,29.72.54,10.12,3.07,18.79,9.81,26.94,5.2,6.28,8.42,14.47,11.46,22.22,7.55,19.2,1.16,36.62-8.03,54.56-1.43-2-2.53-3.25-3.3-4.67-11.53-21.38-14.96-43.76-7.62-67.23,1.85-5.9-2.26-9.38-4.92-13.99-.69,3.26-1.28,6.53-2.07,9.76-4.37,17.86-10.99,34.74-21.44,50.01-1.13,1.65-1.43,4.06-1.56,6.15-.46,7.76.33,15.74-1.18,23.27-4.17,20.77-18.54,31.71-38.16,36.81-3.06.79-6.21,1.22-9.31,1.81-.32-.49-.63-.97-.95-1.46,1.25-2.26,2.6-4.47,3.75-6.78,5.25-10.49,10.47-21,15.66-31.51,4.75-9.6,10.75-18.52,19.9-24.09,7.24-4.41,10.7-10.88,14.09-17.85,9.16-18.82,14.25-38.81,15.68-59.57.63-9.09-.79-18.33-2.38-27.56-.86,3.58-1.41,7.27-2.63,10.72-2.89,8.19-6.06,16.28-9.19,24.39-1.58,4.09-3.4,8.09-5.01,12.17-4.77,12.04-12.13,22.21-21.49,31.14-8.57,8.17-18.73,12.74-30.29,13.78-5.99.54-12.11-.46-18.29-1.51,8.27-4.45,15.07-10.11,20.71-17.13,3.35-4.17,6.46-8.52,9.63-12.84,6.51-8.88,12.34-18.56,22.55-23.72,4.41-2.23,9.53-3.21,14.42-4.31,3.37-.76,5.55-2.15,7.09-5.44,4.39-9.34,6.5-19.25,7.13-29.37.6-9.73-1-19.33-6.9-27.45-7.36-10.11-15.16-19.9-22.83-29.78-.64-.83-1.75-1.29-3.33-2.42,2.82,10.83,2.83,20.8.3,31.05-1.32,5.34.47,11.37-.27,16.95-2.98,22.43-17.32,35.6-37.12,43.92-3.26,1.37-6.86,1.9-10.31,2.82-.38-.41-.76-.81-1.15-1.22,2.28-4.03,4.63-8.01,6.83-12.08,5.62-10.39,11.24-20.79,16.72-31.25,3.81-7.26,8-14.44,15.55-18.12,6.25-3.05,6.81-7.91,6.86-13.63.13-15.24-6.11-27.74-15.51-39.38-9.36-11.6-18.39-23.56-26.51-36.04-6.6-10.13-9.16-21.94-9.61-34.11-.11-3.01.7-4.6,3.88-4.45.48.02.95-.06,1.43-.08,11.1-.32,11.33-.32,11.12,10.41-.1,5.17,2.74,8.13,6.49,10.29,9.4,5.42,18.81,7.9,29.8,2.98,14.39-6.43,28.7-3.34,42.24,3.76,9.7,5.08,18.2,11.72,24.91,20.46,1.09,1.42,1.75,3.17,3.15,5.79-3.08-.23-5.09-.15-6.99-.56-12.89-2.82-25.72-5.91-38.64-8.6-9.79-2.03-18.92-5.4-27.09-11.26-1.22-.87-2.84-1.77-4.23-1.71-9.66.44-18.54-2.15-27.83-6.16,2.21,5.26,3.98,10.77,6.72,15.75,9.39,17.04,23.28,28.92,41.57,35.86,10.93,4.15,21.89,3.33,32.95,1.51,25.19-4.14,47.99,11.88,59.42,28.83.77,1.14.68,2.86,1,4.31-1.49.19-3.08.83-4.44.5-7.85-1.9-15.59-4.23-23.46-6.03-8.95-2.04-18-3.64-27-5.49-8.06-1.65-14.53-6.12-20.53-11.51-1.83-1.64-3.87-3.41-6.13-4.15-7.92-2.58-15.98-4.73-25.49-7.47ZM286.11,400.59c8.57-.15.65-5.62,4.4-8.02-4.08,1.21-4.15,7.54-8.85,3.82-.02-.01-.89.82-.82.96.31.59.83,1.49,1.29,1.51,1.93.05,3.86-.18,6.8-.37-1.44,1.08-1.95,1.46-2.82,2.11Z"/>
  </g>
  <line class="cls-4" x1="437.75" y1="363.74" x2="437.75" y2="687.88"/>
  <text class="cls-2" transform="translate(468.58 513.67)"><tspan x="0" y="0">Urban</tspan><tspan class="cls-3" x="0" y="111.47">V</tspan><tspan x="63" y="111.47">ec</tspan></text>
</svg>